<svg width="534" height="930" viewBox="0 0 534 930" fill="none" xmlns="http://www.w3.org/2000/svg">
<path d="M228.086 267.241C227.96 268.038 218.341 274.241 216.137 276.734C202.468 292.179 199.55 321.591 200.081 347.629C200.697 377.937 220.177 398.606 240.921 416.661C252.498 426.853 277.413 441.035 315.689 459.197C360.649 480.556 392.974 496.173 414.371 517.322C443.252 545.868 454.064 577.359 454.661 606.715C455.485 647.453 445.871 685.659 413.644 718.548C359.274 774.045 265.477 789.644 198.455 727.739C161.437 694.239 152.008 637.652 150.624 615.882C150.088 613.049 149.776 609.269 149.683 604.534C149.538 597.427 152.307 593.82 157.988 593.703C162.718 593.61 166.153 599.277 168.283 610.719C182.325 695.595 213.806 738.677 290.821 738.98C319.711 739.096 342.977 730.283 361.441 711.805C389.181 684.047 401.787 621.634 356.911 570.937C340.851 552.793 314.352 534.492 276.574 516.782C231.125 495.446 197.896 479.605 179.962 459.118C162.01 438.639 149.352 421.149 143.293 385.734C136.666 346.986 150.853 305.065 175.674 278.98C187.442 266.607 208.261 251.512 223.188 244.824C223.188 244.824 230.319 253.301 228.086 267.241Z" fill="#9B7B7E"/>
<path d="M249.798 259.142C249.798 259.142 244.681 190.18 185.716 213.226C185.716 213.226 180.753 224.78 169.526 220.604C156.397 215.72 174.736 184.555 206.665 183.907C238.599 183.259 260.648 208.179 261.063 228.606C261.477 249.038 265.033 423.75 265.033 423.75L252.236 415.576C252.236 415.576 251.252 257.701 249.798 259.142Z" fill="#9B7B7E"/>
<path d="M268.934 211.66C268.938 218.031 271.418 398.602 271.786 423.96L289.622 434.283L285.073 210.798L285.133 210.579C285.264 210.09 288.396 198.42 294.753 186.191C302.196 171.86 310.659 163.117 319.961 160.115C309.475 155.296 282.239 143.65 276.041 143.776C270.066 143.897 246.992 154.914 234.786 161.052C255.348 168.644 268.286 209.153 268.864 210.989L268.99 211.399L268.934 211.66ZM268.542 425.968C268.542 425.968 265.709 215.696 265.704 211.8C264.716 208.762 250.371 165.68 229.963 163.196L224.72 162.557L229.417 160.134C230.951 159.342 267.158 140.7 275.976 140.523C279.709 140.448 289.193 143.547 304.167 149.741C310.729 152.453 316.317 154.933 319.057 156.163C326.416 159.472 326.416 159.472 326.491 160.6L326.598 162.147L325.046 162.329C301.716 164.972 289.3 207.769 288.34 211.199L293.01 440.663L268.542 425.968Z" fill="#9B7B7E"/>
<path d="M187.789 214.594C187.789 214.594 208.37 212.855 225.879 224.656C225.879 224.656 240.877 235.976 244.368 256.785C244.368 256.785 249.443 232.634 225.716 216.467C208.701 204.872 187.789 214.594 187.789 214.594Z" fill="#9B7B7E"/>
<path d="M185.643 218.601C185.643 218.601 216.346 221.677 230.682 241.47C240.842 255.503 240.464 256.864 240.534 287.52C240.6 318.172 243.018 409.672 243.018 409.672L246.989 413.228L243.992 265.779C243.992 265.779 241.639 232.261 218.043 222.698C218.043 222.698 202.276 214.565 185.643 218.601Z" fill="#9B7B7E"/>
<path d="M304.964 253.789C304.964 253.789 307.275 184.679 367.125 205.311C367.125 205.311 372.555 216.65 383.605 212.022C396.524 206.606 376.931 176.215 345.002 176.863C313.068 177.516 292.05 203.311 292.464 223.743C292.884 244.17 296.906 442.04 296.906 442.04L309.662 448.024C309.662 448.024 303.454 252.41 304.964 253.789Z" fill="#9B7B7E"/>
<path d="M365.113 206.759C365.113 206.759 344.476 205.86 327.461 218.359C327.461 218.359 312.939 230.285 310.296 251.215C310.296 251.215 304.238 227.288 327.293 210.17C343.824 197.895 365.113 206.759 365.113 206.759Z" fill="#9B7B7E"/>
<path d="M367.42 210.677C367.42 210.677 336.862 214.998 323.351 235.355C319.562 241.059 317.343 244.718 316.108 248.945C314.226 255.423 314.664 263.234 315.377 281.768C316.56 312.397 318.909 451.858 318.909 451.858L314.897 449.863L311.038 260.186C311.038 260.186 312.026 226.602 335.216 216.088C335.216 216.088 350.633 207.317 367.42 210.677Z" fill="#9B7B7E"/>
<path d="M276.325 211.911C276.325 211.911 255.959 151.543 276.749 151.119C297.54 150.695 276.325 211.911 276.325 211.911Z" fill="#9B7B7E"/>
<path d="M280.218 225.398C280.27 227.733 278.312 229.667 275.852 229.719C273.391 229.765 271.359 227.915 271.308 225.58C271.261 223.245 273.218 221.316 275.679 221.265C278.14 221.213 280.172 223.068 280.218 225.398Z" fill="#9B7B7E"/>
<path d="M280.601 244.052C280.647 246.387 278.69 248.321 276.229 248.367C273.768 248.419 271.736 246.568 271.69 244.233C271.643 241.899 273.601 239.969 276.057 239.918C278.517 239.867 280.549 241.717 280.601 244.052Z" fill="#9B7B7E"/>
<path d="M280.979 262.705C281.03 265.04 279.068 266.974 276.612 267.02C274.151 267.072 272.114 265.221 272.068 262.887C272.021 260.552 273.979 258.622 276.439 258.571C278.9 258.52 280.932 260.37 280.979 262.705Z" fill="#9B7B7E"/>
<path d="M281.361 281.358C281.407 283.693 279.45 285.627 276.989 285.674C274.529 285.725 272.497 283.875 272.445 281.54C272.399 279.205 274.356 277.271 276.817 277.22C279.278 277.173 281.309 279.024 281.361 281.358Z" fill="#9B7B7E"/>
<path d="M281.739 300.011C281.785 302.342 279.828 304.28 277.372 304.327C274.906 304.378 272.874 302.528 272.828 300.193C272.781 297.858 274.739 295.924 277.195 295.873C279.66 295.826 281.687 297.676 281.739 300.011Z" fill="#9B7B7E"/>
<path d="M282.116 318.665C282.168 320.996 280.21 322.934 277.749 322.981C275.289 323.032 273.252 321.182 273.205 318.847C273.159 316.512 275.116 314.578 277.577 314.527C280.038 314.48 282.07 316.33 282.116 318.665Z" fill="#9B7B7E"/>
<path d="M282.499 337.316C282.545 339.651 280.588 341.585 278.127 341.632C275.667 341.683 273.635 339.833 273.583 337.498C273.537 335.163 275.494 333.234 277.955 333.182C280.416 333.131 282.448 334.986 282.499 337.316Z" fill="#9B7B7E"/>
<path d="M282.876 355.97C282.923 358.305 280.97 360.239 278.509 360.285C276.044 360.337 274.012 358.486 273.965 356.151C273.919 353.817 275.876 351.887 278.332 351.836C280.798 351.785 282.83 353.635 282.876 355.97Z" fill="#9B7B7E"/>
<path d="M283.254 374.623C283.306 376.958 281.348 378.892 278.887 378.938C276.427 378.99 274.395 377.139 274.343 374.805C274.297 372.47 276.254 370.536 278.715 370.484C281.176 370.438 283.208 372.288 283.254 374.623Z" fill="#9B7B7E"/>
<path d="M283.636 393.276C283.683 395.611 281.726 397.545 279.265 397.591C276.804 397.643 274.772 395.793 274.726 393.458C274.679 391.123 276.632 389.189 279.092 389.137C281.558 389.091 283.585 390.941 283.636 393.276Z" fill="#9B7B7E"/>
<path d="M284.014 411.93C284.061 414.26 282.108 416.199 279.648 416.245C277.187 416.296 275.15 414.446 275.104 412.111C275.057 409.776 277.014 407.842 279.471 407.791C281.936 407.744 283.968 409.595 284.014 411.93Z" fill="#9B7B7E"/>
<path d="M214.1 701.801L226.236 711.994C260.407 696.386 280.526 669.863 287.037 652.815C294.139 634.201 293.021 619.157 293.007 619.003L291.352 537.58L276.08 530.402C276.257 537.556 276.933 566.941 276.765 619.278C276.607 668.502 228.343 696.101 214.1 701.801ZM225.071 716.174L207.846 701.801C208.41 701.563 272.063 676.299 273.512 619.264C274.985 561.311 273.093 543.862 273.083 543.466L272.706 525.192L294.563 535.571L296.255 618.84C296.307 619.38 297.085 634.583 290.075 653.975C283.499 672.17 261.921 699.685 226.045 715.741L225.071 716.174Z" fill="#9B7B7E"/>
<path d="M287.66 550.126C287.711 552.461 285.754 554.395 283.293 554.446C280.832 554.493 278.8 552.643 278.749 550.308C278.703 547.973 280.66 546.043 283.121 545.992C285.581 545.945 287.613 547.796 287.66 550.126Z" fill="#9B7B7E"/>
<path d="M288.042 568.781C288.089 571.116 286.131 573.046 283.675 573.097C281.21 573.148 279.178 571.298 279.131 568.963C279.085 566.628 281.037 564.694 283.498 564.643C285.963 564.596 287.991 566.447 288.042 568.781Z" fill="#9B7B7E"/>
<path d="M288.42 587.433C288.471 589.768 286.514 591.702 284.053 591.753C281.588 591.8 279.56 589.949 279.509 587.615C279.462 585.28 281.42 583.35 283.876 583.299C286.341 583.252 288.373 585.098 288.42 587.433Z" fill="#9B7B7E"/>
<path d="M288.802 606.088C288.849 608.423 286.891 610.352 284.431 610.404C281.97 610.455 279.938 608.6 279.891 606.27C279.84 603.935 281.797 602.001 284.258 601.95C286.719 601.903 288.751 603.753 288.802 606.088Z" fill="#9B7B7E"/>
<path d="M289.18 624.739C289.227 627.074 287.274 629.008 284.813 629.06C282.348 629.106 280.316 627.256 280.269 624.921C280.223 622.586 282.175 620.652 284.636 620.601C287.102 620.554 289.129 622.404 289.18 624.739Z" fill="#9B7B7E"/>
<path d="M286.313 642.922C286.364 645.257 284.406 647.191 281.946 647.242C279.48 647.289 277.448 645.439 277.402 643.104C277.355 640.769 279.312 638.835 281.769 638.784C284.234 638.737 286.266 640.587 286.313 642.922Z" fill="#9B7B7E"/>
<path d="M280.378 658.027C280.425 660.362 278.467 662.297 276.011 662.348C273.546 662.394 271.514 660.544 271.467 658.209C271.42 655.874 273.378 653.94 275.834 653.889C278.295 653.842 280.327 655.693 280.378 658.027Z" fill="#9B7B7E"/>
<path d="M270.879 671.954C270.926 674.289 268.969 676.223 266.512 676.274C264.047 676.321 262.015 674.471 261.968 672.136C261.922 669.801 263.879 667.871 266.335 667.82C268.796 667.773 270.833 669.624 270.879 671.954Z" fill="#9B7B7E"/>
<path d="M259.683 684.256C259.73 686.591 257.773 688.521 255.312 688.572C252.851 688.623 250.819 686.768 250.773 684.433C250.726 682.103 252.683 680.169 255.139 680.118C257.6 680.071 259.637 681.921 259.683 684.256Z" fill="#9B7B7E"/>
<path d="M246.387 694.838C246.433 697.173 244.476 699.107 242.015 699.158C239.554 699.205 237.522 697.355 237.476 695.02C237.429 692.685 239.387 690.755 241.843 690.704C244.303 690.658 246.34 692.508 246.387 694.838Z" fill="#9B7B7E"/>
<path d="M301.928 539.308L312.643 545.469L314.017 613.195C314.017 613.195 315.425 654.92 295.888 680.688C295.888 680.688 280.275 705.678 250.854 721.29C249.824 721.836 245.671 724.483 244.609 725.005L232.967 718.9C232.967 718.9 237.879 716.024 240.88 714.454C252.135 708.553 280.243 691.268 293.246 660.131C293.246 660.131 301.802 642.514 302.301 612.375C302.72 587.003 301.928 539.308 301.928 539.308Z" fill="#9B7B7E"/>
<path d="M254.226 515.582L265.342 521.184L266.754 590.374C266.754 590.374 269.01 638.903 254.651 659.451C254.651 659.451 228.347 689.642 206.456 696.591C205.562 696.87 198.809 687.205 199.158 687.205C209.229 687.205 241.643 666.563 249.627 644.291C249.627 644.291 256.622 633.604 255.033 589.553C254.04 562.089 254.226 515.582 254.226 515.582Z" fill="#9B7B7E"/>
<path d="M244.5 509.952L249.002 512.082L250.428 582.245C250.428 582.245 253.085 629.531 238.772 651.761C238.772 651.761 232.947 661.572 223.826 668.092C214.1 675.045 201.936 680.256 192.899 679.561L190.466 676.084C190.466 676.084 222.442 675.39 238.427 643.07C238.427 643.07 247.282 628.473 245.884 578.112C245.125 550.638 244.5 509.952 244.5 509.952Z" fill="#9B7B7E"/>
<path d="M256.62 728.922L251.759 727.263C253.777 726.205 259.906 722.328 261.803 721.167C290.987 703.392 305.76 674.674 305.9 674.385C321.219 639.884 318.148 604.902 318.115 604.548L316.978 548.715L320.734 550.859L322.193 604.394C322.226 604.674 325.087 640.793 309.535 675.83C309.368 676.17 294.515 706.035 264.184 724.201C263.07 724.872 257.771 728.289 256.62 728.922Z" fill="#9B7B7E"/>
<path d="M266.793 195.72C266.793 195.72 256.516 169.859 251.455 167.491C246.394 165.124 258.888 149.427 262.519 163.567C266.149 177.702 266.793 195.72 266.793 195.72Z" fill="#9B7B7E"/>
<path d="M287.068 194.516C287.068 194.516 296.286 168.259 301.25 165.686C306.209 163.113 293.085 147.939 290.037 162.214C286.979 176.484 287.068 194.516 287.068 194.516Z" fill="#9B7B7E"/>
<path d="M334.688 242.281C356.364 244.057 380.496 273.078 386.21 279.104C393.541 286.821 399.101 295.159 403.626 293.733C408.738 292.12 412.164 294.05 414.145 295.616C425.083 304.242 430.983 329.204 424.039 343.726C414.229 364.232 404.325 375.576 400.755 388.56L395.512 401.166C393.68 406.079 384.345 402.649 380.081 400.607C375.369 398.356 374.517 391.915 377.513 381.266C384.867 353.807 386.974 326.039 374.381 302.192C359.906 274.788 340.639 262.14 323.419 261.38C323.419 261.38 325.973 241.563 334.688 242.281Z" fill="#9B7B7E"/>
<path d="M170.538 528.753C139.844 531.14 112.356 551.049 98.5704 580.997C83.8433 612.978 83.6941 643.299 98.0904 679.306C107.803 703.606 142.985 737.45 186.598 729.08C186.71 729.057 173.371 705.763 170.197 705.703C136.003 705.004 112.543 679.483 108.003 649.115C101.716 607.078 119.459 587.853 136.577 573.135L139.089 570.977L139.503 574.151C139.513 574.24 140.664 582.713 145.832 590.92C152.627 601.709 162.881 606.989 176.307 606.602C189.692 606.215 200.127 602.357 207.318 595.105C216.914 585.434 217.59 573 217.436 568.102C217.217 561.237 213.969 547.125 203.184 537.818C195.248 530.967 184.715 527.882 171.894 528.66C171.442 528.688 170.99 528.716 170.538 528.753ZM192.875 732.216C141.587 740.246 106.572 709.981 94.7954 680.513C80.045 643.63 80.2174 612.53 95.3407 579.679C109.658 548.588 138.278 527.905 170.277 525.417C170.752 525.379 171.223 525.351 171.698 525.323C185.503 524.484 196.902 527.854 205.571 535.334C216.462 544.739 220.666 558.795 220.96 567.976C221.127 573.294 220.386 586.795 209.872 597.388C202.01 605.316 190.741 609.529 176.382 609.948C147.221 610.783 138.716 586.352 136.614 577.628C120.936 591.526 105.603 610.126 111.494 648.621C119.953 703.96 172.29 701.867 172.64 701.867C172.64 701.867 192.531 731.871 192.875 732.216Z" fill="#9B7B7E"/>
<path d="M136.119 712.634C133.607 713.281 131.039 711.879 130.377 709.497C129.711 707.12 131.212 704.669 133.719 704.021C136.231 703.378 138.803 704.776 139.465 707.153C140.127 709.53 138.631 711.981 136.119 712.634Z" fill="#9B7B7E"/>
<path d="M122.156 701.906C119.644 702.559 117.076 701.156 116.414 698.774C115.747 696.397 117.248 693.946 119.76 693.298C122.267 692.655 124.84 694.053 125.502 696.43C126.164 698.807 124.668 701.258 122.156 701.906Z" fill="#9B7B7E"/>
<path d="M109.564 688.953C107.118 688.156 105.827 685.616 106.689 683.286C107.551 680.956 110.236 679.716 112.682 680.513C115.134 681.31 116.42 683.85 115.558 686.18C114.696 688.51 112.011 689.755 109.564 688.953Z" fill="#9B7B7E"/>
<path d="M102.285 673.961C99.838 673.164 98.5517 670.624 99.4139 668.294C100.276 665.964 102.961 664.724 105.407 665.521C107.854 666.318 109.14 668.858 108.278 671.188C107.421 673.519 104.731 674.763 102.285 673.961Z" fill="#9B7B7E"/>
<path d="M97.1418 657.6C94.6951 656.798 93.4088 654.263 94.271 651.928C95.1332 649.598 97.8176 648.363 100.264 649.155C102.711 649.957 103.997 652.492 103.135 654.822C102.273 657.152 99.5886 658.397 97.1418 657.6Z" fill="#9B7B7E"/>
<path d="M94.5772 640.505C92.4287 639.139 91.8694 636.366 93.3281 634.32C94.7822 632.265 97.7044 631.715 99.8529 633.081C102.001 634.446 102.561 637.219 101.107 639.265C99.6478 641.321 96.7257 641.875 94.5772 640.505Z" fill="#9B7B7E"/>
<path d="M94.6364 623.915C92.4879 622.545 91.9287 619.777 93.3874 617.726C94.8415 615.676 97.7636 615.121 99.9121 616.487C102.061 617.857 102.62 620.625 101.166 622.676C99.707 624.726 96.7849 625.281 94.6364 623.915Z" fill="#9B7B7E"/>
<path d="M96.7298 606.311C95.7698 604.032 96.9489 601.427 99.363 600.5C101.777 599.572 104.504 600.667 105.468 602.946C106.424 605.235 105.245 607.835 102.835 608.763C100.421 609.695 97.6899 608.595 96.7298 606.311Z" fill="#9B7B7E"/>
<path d="M103.901 591.16C102.94 588.881 104.12 586.276 106.534 585.349C108.948 584.421 111.679 585.516 112.639 587.8C113.594 590.084 112.42 592.684 110.006 593.612C107.592 594.544 104.861 593.444 103.901 591.16Z" fill="#9B7B7E"/>
<path d="M113.551 576.628C112.591 574.349 113.771 571.744 116.185 570.816C118.599 569.889 121.33 570.984 122.29 573.263C123.245 575.551 122.071 578.152 119.657 579.079C117.243 580.012 114.512 578.912 113.551 576.628Z" fill="#9B7B7E"/>
<path d="M212.416 749.667C207.802 751.083 191.635 753.549 183.703 754.164C175.673 754.789 165.215 754.751 153.671 752.565C130.345 748.147 98.1878 733.704 77.4859 689.97C54.8872 642.242 63.3646 601.962 74.4519 576.567C86.4666 549.07 103.561 533.103 104.284 532.441C104.661 532.036 115.725 520.501 134.05 512.14C151.028 504.394 177.584 498.14 207.719 512.322C234.358 524.859 247.319 547.77 244.215 576.823C241.125 605.793 222.106 625.618 193.341 629.873C191.323 630.302 154.16 637.74 134.111 610.612C131.827 615.011 127.763 626.578 132.619 647.602C133.831 652.845 140.771 670.872 158.499 675.737C159.096 675.9 161.165 681.143 160.233 680.952C140.081 676.777 130.965 656.098 129.175 648.343C122.366 618.87 132.251 606.907 132.675 606.417L134.237 604.595L135.537 606.571C154.258 635.014 192.246 626.69 192.623 626.606L192.768 626.578C219.864 622.589 237.788 603.877 240.71 576.515C242.793 557.002 238.482 530.544 206.134 515.323C182.999 504.436 159.291 504.362 135.667 515.104C117.944 523.162 106.922 534.632 106.81 534.748C106.558 534.991 89.3701 551.065 77.6537 577.956C66.8739 602.712 58.6435 641.991 80.7016 688.582C96.8083 722.599 121.551 743.016 154.239 749.257C175.557 753.32 202.942 748.334 209.103 746.693L212.416 749.667Z" fill="#9B7B7E"/>
<path d="M203.676 742.463C194.602 747.696 165.45 746.116 154.298 743.94C133.745 739.941 105.279 727.488 86.3898 690.904C61.7264 643.138 70.7631 603.086 82.6847 577.896C95.3192 551.201 113.36 535.532 114.791 534.316C115.765 533.43 125.491 524.841 140.745 518.615C161.792 510.025 183.351 510.128 203.084 518.922C227.216 529.679 240.018 555.363 234.216 581.382C232.384 589.603 223.65 616.802 188.226 622.064C185.318 622.613 151.501 628.351 133.722 599.19C128.991 606.148 121.6 620.279 123.31 638.813C125.417 661.636 137.296 683.037 163.013 686.509C163.348 686.555 168.815 697.321 168.573 697.288C131.736 691.374 117.829 668.953 115.117 639.559C112.325 609.326 130.585 589.967 131.363 589.156L135.623 584.733L138.154 590.181C152.606 621.285 185.262 614.709 186.651 614.411L186.935 614.364C216.361 610.035 224.172 588.769 226.172 579.83C231.261 556.998 220.561 535.36 199.537 525.997C157.127 507.099 121.893 538.617 120.411 539.969L120.281 540.081C120.108 540.23 102.17 555.558 90.0482 581.335C73.9043 615.665 75.158 651.355 93.7813 687.422C107.781 714.537 128.721 730.979 156.013 736.297C163.4 737.732 186.949 738.851 197.067 736.753C197.747 736.614 203.676 742.463 203.676 742.463Z" fill="#9B7B7E"/>
<path d="M126.07 558.155C126.07 558.155 152.895 524.142 190.589 537.62C190.589 537.62 215.178 548.088 209.553 576.82C203.928 605.552 170.862 603.287 161.294 596.781C148.845 588.317 149.279 573.641 150.477 568.836C151.674 564.027 138.15 561.934 133.829 566.986C129.504 572.038 147.214 547.081 170.722 556.258C194.225 565.434 193.036 580.46 193.036 580.46C193.036 580.46 201.919 558.252 181.651 547.748C168.862 541.116 149.013 539.867 126.07 558.155Z" fill="#9B7B7E"/>
<path d="M408.122 322.301C408.122 322.301 398.815 319.211 400.214 335.779C401.267 348.251 399.463 359.599 399.463 359.599C399.463 359.599 427.799 332.89 408.122 322.301Z" fill="#A08285"/>
<path d="M400.213 335.778C400.213 335.778 404.934 323.94 415 335.223C415 335.223 407.105 348.342 400.213 335.778Z" fill="#9B7B7E"/>
<path d="M209.819 269.794C196.155 285.238 175.77 314.884 182.789 359.699C190.87 411.309 215.412 435.623 269.259 463.661C312.742 486.306 355.343 497.179 390.511 531.126C443.72 582.484 447.476 657.891 408.529 707.516C360.968 768.121 264.785 782.96 197.763 721.055C160.749 687.55 155.856 599.709 157.985 611.151C172.028 696.028 214.508 747.918 304.525 742.684C408.627 736.635 420.157 669.957 405.499 613.234C394.654 571.276 377.658 557.882 367.549 548.244C322.272 505.041 204.05 480.21 175.052 415.909C146.283 352.116 167.992 305.661 192.813 279.576C204.581 267.202 212.024 267.3 209.819 269.794Z" fill="#A08285"/>
<path d="M206.49 283.459L189.046 285.482L193.548 302.036L181.161 307.008L188.147 322.961L173.252 327.426L186.837 340.466L171.994 347.429L186.404 360.04L173.751 372.367L191.796 379.493L180.014 393.884L198.432 398.922L192.183 419.028L214.19 416.497L211.743 439.441L234.137 435.237L233.745 456.89L255.677 450.621L256.95 472.237L276.733 462.678L280.891 482.988L304.412 472.936L308.234 496.998L325.524 487.49L330.073 506.547L349.889 498.652L353.608 517.723L373.825 508.989L372.217 532.324L396.266 527.673L390.049 549.447L415.015 548.939L404.617 569.967L426.288 571.188L415.858 590.548L433.456 596.015L420.482 612.927L439.04 625.04L421.786 636.211L437.884 650.034L419.74 658.726L428.47 678.533L413.579 682.998L416.464 702.083L398.19 704.124L398.545 721.601L382.769 723.586L378.099 739.497L361.424 738.169L352.522 750.836L334.113 746.217L326.013 757.202L310.065 750.869L300.301 761.886L285.966 753.026L268.661 761.7L255.095 749.489L237.888 750.715L229.909 739.18L216.254 738.5L215.21 719.662L194.271 719.312L191.484 693.489L174.039 689.653L179.618 671.16L162.104 662.594L169.151 640.807L155.542 625.105" stroke="#9B7B7E" stroke-width="0.714" stroke-miterlimit="10"/>
<path d="M216.134 276.734L189.826 269.091L189.048 285.478L173.565 288.293L180.598 306.464L165.596 319.257L173.253 327.422L160.94 335.997L171.995 347.429L157.254 359.384L173.752 372.368L161.565 387.183L180.016 393.885L170.886 415.715L192.179 419.029L188.819 437.824L211.744 439.441L210.98 463.182L233.742 456.89L233.714 476.04L256.946 472.237L258.983 490.511L280.892 482.989L285.907 504.53L308.23 496.999L312.374 516.479L330.074 506.548L333.872 529.776L353.61 517.719L351.247 544.824L372.219 532.325L370.229 557.343L390.05 549.448L383.865 572.881L404.619 569.963L394.207 590.152L415.86 590.544L401.216 607.494L420.478 612.928L405.84 629.878L421.783 636.212L407.858 647.318L419.742 658.727L404.898 665.69L413.581 682.994L397.838 686.648L398.192 704.125L385.692 703.547L382.766 723.582L370.238 721.34L361.42 738.169L348.837 733.43L334.115 746.218L321.275 738.151L310.067 750.869L297.851 743.622L285.967 753.027L272.433 742.476L255.096 749.49L245.272 737.2L229.911 739.181L226.373 725.591" stroke="#9B7B7E" stroke-width="0.714" stroke-miterlimit="10"/>
<path d="M409.961 300.549C428.002 307.675 427.368 337.796 410.32 359.229C400.067 372.13 395.537 389.499 391.469 394.16C387.4 398.825 381.863 392.556 381.863 392.556C390.63 352.835 391.939 344.176 385.48 311.175C378.666 276.352 333.837 255.063 333.837 255.063L335.403 250.314C335.403 250.314 360.476 255.077 387.372 295.04C387.372 295.04 399.993 315.318 395.108 348.165C392.601 365.046 390.443 384.61 390.443 384.61L390.858 384.601L407.403 358.875C407.403 358.875 420.83 343.756 419.902 325.459C418.919 306.062 409.961 300.549 409.961 300.549Z" fill="#A08285"/>
<path d="M331.143 259.003L347.65 252.007L348.522 267.527L364.586 266.091L364.899 281.625L382.688 282.93L375.776 298.053L395.886 304.303L384.496 317.301L397.415 324.809L386.034 338.357L395.113 348.163L385.885 358.341L394.94 367.038L381.844 377.845L390.284 383.778L381.863 392.554" stroke="#9B7B7E" stroke-width="0.714" stroke-miterlimit="10"/>
<path d="M149.488 478.02C148.505 478.002 143.467 474.208 134.383 466.639C132.519 465.046 131.596 463.839 131.61 463.014C131.624 462.273 132.342 461.215 133.764 459.844C142.138 451.759 147.023 447.732 148.421 447.76C150.649 447.797 151.73 449.135 151.688 451.768C151.697 451.027 151.254 452.705 150.36 456.806C150.919 457.719 151.898 458.19 153.296 458.213C153.627 458.223 153.995 458.227 154.41 458.237C154.824 458.157 155.067 458.12 155.151 458.125C159.508 458.204 161.657 460.091 161.591 463.797C161.549 466.262 159.625 467.833 155.831 468.504C154.428 468.643 153.025 468.825 151.623 469.049C150.551 469.189 150.01 469.473 150.005 469.883C149.996 470.373 150.644 471.067 151.944 471.957C153.244 472.843 153.888 473.532 153.878 474.026C153.864 474.767 153.314 475.616 152.228 476.585C151.143 477.554 150.229 478.034 149.488 478.02ZM126.964 495.148C123.674 495.087 122.066 493.004 122.14 488.889C122.15 488.311 122.243 487.696 122.42 487.048C122.592 486.386 122.686 485.976 122.69 485.817C122.69 485.566 122.574 485.235 122.336 484.82L120.108 485.03C117.969 484.988 116.613 484.839 116.044 484.582C115.224 484.242 114.828 483.492 114.851 482.341C114.861 481.6 117.778 477.205 123.604 469.165C124.517 468.602 125.51 468.331 126.577 468.355C128.138 468.382 129.648 469.273 131.098 471.025C132.142 472.363 134.682 475.285 138.718 479.805C140.652 482.056 141.617 483.515 141.603 484.177C141.589 485.081 140.969 486.265 139.748 487.719C138.531 489.182 137.632 489.909 137.059 489.9C136.565 489.891 135.814 489.317 134.803 488.19C133.796 487.057 132.999 486.488 132.426 486.479C131.606 486.465 131.186 486.908 131.168 487.817C131.168 487.896 131.205 488.078 131.284 488.376C131.359 488.66 131.396 488.889 131.396 489.052C131.354 491.275 131.098 492.855 130.632 493.796C130.161 494.733 128.94 495.18 126.964 495.148ZM123.683 457.687C121.791 457.654 119.722 456.051 117.471 452.882C113.7 447.55 111.841 443.239 111.901 439.954C111.92 438.798 112.549 438.234 113.784 438.252C114.441 438.266 115.215 438.569 116.11 439.161C117.004 439.753 117.62 440.051 117.951 440.056C118.608 440.07 119.577 438.728 120.859 436.039C121.301 434.23 121.786 432.473 122.308 430.754C122.835 429.039 124.005 428.19 125.813 428.223C127.621 428.256 129.094 428.857 130.226 430.031C131.354 431.201 131.904 432.692 131.871 434.505C131.862 434.995 131.727 435.796 131.457 436.901C131.191 438.01 131.051 438.849 131.042 439.427C131.037 439.753 131.28 439.926 131.774 439.935C131.527 439.93 132.212 439.548 133.833 438.798C135.451 438.043 137.371 437.605 139.594 437.479C139.99 438.308 140.186 438.97 140.176 439.469C140.162 440.368 139.477 441.715 138.13 443.5C135.856 446.427 134.635 448.012 134.467 448.249C132.184 451.749 130.576 453.986 129.658 454.956C127.896 456.815 125.901 457.729 123.683 457.687ZM108.159 476.79C103.797 476.715 101.639 475.685 101.671 473.714C101.69 472.642 102.161 471.663 103.079 470.778C103.661 470.452 103.955 470.177 103.96 469.925C103.974 469.189 102.482 468.667 99.4857 468.364C96.4843 468.066 95.007 466.761 95.0489 464.458C95.1002 461.662 96.0276 460.278 97.8359 460.315C97.9198 460.315 98.2879 460.385 98.9451 460.52C99.5975 460.651 100.175 460.725 100.669 460.735C102.068 460.758 102.781 459.947 102.809 458.307C102.818 457.892 102.52 457.165 101.923 456.125C101.327 455.086 101.033 454.28 101.042 453.707C101.056 452.798 101.462 452.001 102.259 451.32C103.051 450.635 103.983 450.3 105.05 450.318C106.448 450.346 109.44 452.122 114.031 455.664C118.612 459.201 120.896 461.835 120.863 463.559C120.84 464.878 119.316 467.32 116.287 470.885C112.927 474.856 110.214 476.827 108.159 476.79ZM57.299 532.539C55.1598 532.501 54.1159 531.211 54.1578 528.657C54.2137 525.697 55.7843 520.664 58.8696 513.561C61.7917 506.864 63.2458 503.597 63.2458 503.76C63.2458 503.597 63.1479 503.35 62.9475 503.015C62.7517 502.684 62.6492 502.353 62.6539 502.022C62.7005 499.556 64.849 496.63 69.1086 493.256C73.3683 489.872 75.871 487.775 76.626 486.969C78.5508 485.03 79.5388 482.947 79.5761 480.723C79.632 477.517 78.0661 475.471 74.8737 474.595C73.0701 474.068 71.8863 473.551 71.3177 473.052C70.5907 472.293 70.2458 471.016 70.2738 469.203C70.3623 464.267 73.4103 461.853 79.4176 461.96C82.4609 462.012 85.3178 463.261 87.9929 465.693C90.4164 468.038 91.6141 470.242 91.5769 472.297C91.5722 472.46 91.5675 472.833 91.5536 473.411C91.465 473.98 91.4137 474.474 91.4091 474.889C91.3298 478.999 92.1501 481.772 93.8512 483.198C94.1727 483.455 96.9084 484.731 102.054 487.048C104.827 488.25 107.073 490.263 108.797 493.092C110.512 495.926 111.347 498.778 111.295 501.654C111.239 504.702 110.27 507.195 108.387 509.138C106.5 511.077 104.118 512.019 101.238 511.967C98.6049 511.921 96.1162 510.62 93.7766 508.071C91.437 505.517 90.2906 502.973 90.3372 500.423C90.3884 497.371 91.4137 495.208 93.4131 493.931C92.2014 492.678 90.8125 492.034 89.2513 492.007C79.9536 491.843 71.5507 501.523 64.0474 521.06C63.2504 524.005 62.4581 526.956 61.6658 529.906C61.1392 531.709 59.6851 532.585 57.299 532.539ZM81.7153 457.556C79.7439 457.524 77.9822 456.936 76.4396 455.795C74.897 454.662 74.1373 453.39 74.1606 451.992C74.1979 450.095 75.7126 448.025 78.7139 445.779C80.634 444.414 81.678 443.612 81.8458 443.36C82.6846 442.559 83.1134 441.533 83.1367 440.303C83.188 437.255 80.9789 434.049 76.5142 430.679C73.0235 427.985 70.7165 426.135 69.5794 425.124C67.3936 423.19 65.823 421.354 64.8629 419.61C64.5647 418.124 62.8962 414.675 59.8622 409.274C57.3176 404.538 56.0733 400.442 56.1338 396.988C56.2038 392.873 57.4388 390.841 59.8203 390.883C61.2231 390.907 61.9082 391.452 61.8896 392.524L61.8662 393.759C61.8057 397.375 63.2085 401.761 66.0793 406.92C69.2718 412.569 73.6573 417.872 79.2499 422.831C81.9203 425.18 85.5182 426.396 90.0482 426.475C90.8685 426.489 91.6514 426.382 92.3971 426.149C91.7167 422.924 91.3811 420.822 91.3998 419.834C91.5256 412.592 94.513 409.027 100.353 409.134C107.59 409.264 111.151 412.778 111.03 419.69C110.913 426.186 108.648 430.754 104.244 433.396C102.58 434.188 100.963 434.939 99.3878 435.657C97.3139 436.687 95.7713 437.852 94.76 439.152C93.2406 441.1 92.4437 444.372 92.3598 448.981L92.3318 450.71C92.3039 452.024 91.2926 453.45 89.2932 454.974C86.9583 456.745 84.4323 457.607 81.7153 457.556Z" fill="#9B7B7E"/>
<path d="M30.0015 289.089L27.8204 287.215C26.3617 285.962 25.5274 281.991 25.3084 275.303C24.847 266.597 26.0448 256.885 28.9249 246.175C35.2446 221.982 50.4098 195.907 74.416 167.944C88.7843 151.208 105.539 136.528 124.693 123.893C130.062 120.374 132.975 118.454 133.432 118.123C135.692 117.177 137.608 117.368 139.16 118.706C139.887 119.331 139.486 121.069 137.957 123.902C135.813 127.668 134.685 131.387 134.583 135.092C136.191 140.988 137.803 145.536 139.411 148.715C140.786 154.051 140.357 158.017 138.13 160.618C135.538 163.633 132.425 163.573 128.785 160.45C127.643 159.471 125.164 154.997 121.356 147.032C119.464 150.281 118.858 156.447 119.553 165.525C120.294 173.928 119.413 179.577 116.91 182.489C115.573 184.051 113.55 184.927 110.842 185.137C108.139 185.342 106.009 184.778 104.453 183.44C100.086 179.689 99.3216 169.016 102.155 151.409C99.7923 153.529 97.8955 155.421 96.4694 157.085C93.7011 160.306 91.8509 164.039 90.9048 168.294C90.6578 170.055 90.257 174.413 89.7164 181.357C88.8309 193.95 87.3162 201.504 85.1724 203.998C83.8348 205.559 82.0638 206.566 79.8687 207.032C77.669 207.484 75.9446 207.181 74.6956 206.109C70.3287 202.357 68.6277 194.667 69.5877 183.03C68.8281 183.286 68.2268 183.669 67.7794 184.195C65.7847 188.613 64.3913 192.654 63.599 196.317C62.9745 199.566 63.1795 204.892 64.2375 212.298C65.0764 218.254 64.5171 222.379 62.555 224.667C59.7867 227.887 56.3193 227.72 52.1668 224.145C52.4744 224.415 51.039 222.723 47.8465 219.084C45.4044 226.554 45.8891 232.93 49.3006 238.21C49.9577 239.133 50.2141 240.349 50.0929 241.869C49.9624 243.383 49.6315 244.451 49.0955 245.075C45.7027 249.023 42.7619 249.931 40.2686 247.788C39.9563 247.522 39.5509 246.991 39.0522 246.203C38.5535 245.411 38.0968 244.842 37.682 244.488C37.0622 243.952 36.2652 243.719 35.3005 243.794C35.4589 247.182 36.0835 252.77 37.16 260.557C37.6913 264.985 37.6447 267.567 37.0202 268.298C35.5941 269.958 33.5248 269.627 30.8218 267.306L30.3557 266.905C30.1134 270.125 30.7332 274.45 32.2199 279.88C33.399 283.967 33.5948 286.484 32.7931 287.42C32.5228 287.728 31.5907 288.287 30.0015 289.089Z" fill="#9B7B7E"/>
<path d="M416.479 124.099C382.131 104.65 353.734 94.5186 331.285 93.717C332.198 95.6091 334.687 98.4194 338.751 102.138C342.82 105.858 345.327 109.306 346.278 112.48L346.324 114.083L344.726 114.13C339.492 110.658 334.268 107.349 329.043 104.198C323.819 101.043 318.865 99.5426 314.167 99.687C310.755 99.7942 306.663 100.4 301.891 101.509C297.119 102.618 294.089 103.192 292.808 103.229C289.606 103.327 287.98 102.306 287.914 100.176C287.5 86.7309 294.975 79.7728 310.341 79.3021C331.038 78.6636 354.252 83.5058 379.987 93.8195C393.642 100.237 402.101 104.571 405.373 106.818C419.028 113.235 425.902 118.045 426.005 121.246C426.056 122.948 425.655 123.922 424.807 124.164L422.258 124.565L416.479 124.099ZM128.293 129.104L128.838 126.21C135.94 113.813 154.988 101.267 185.994 88.5671C201.812 82.0984 214.209 78.7288 223.166 78.4585C232.133 78.1789 237.903 78.3234 240.48 78.8826C244.39 80.896 247.116 82.7368 248.659 84.4006C253.208 86.3953 255.594 91.1257 255.827 98.5965C255.929 102.008 254.811 103.756 252.462 103.826C251.18 103.868 248.813 103.243 245.355 101.961C241.906 100.68 239.427 100.06 237.931 100.111C230.464 100.335 224.108 102.138 218.874 105.499C215.528 107.736 210.541 112.373 203.923 119.415L202.031 120.436C201.332 118.534 200.973 117.262 200.954 116.623C200.856 113.422 203.508 109.283 208.9 104.203C215.131 98.4567 218.645 94.3974 219.419 92.0252L213.976 92.193C199.472 92.6404 180.327 98.6757 156.549 110.299C144.134 116.446 136.281 121.596 132.995 125.758L130.222 129.365L128.293 129.104ZM262.762 100.148C259.979 96.4946 258.516 92.3188 258.372 87.6257C258.269 84.2096 259.83 81.1197 263.055 78.356C266.28 75.5783 269.706 74.1429 273.332 74.031C276.105 73.9472 278.556 75.3127 280.663 78.1323C282.783 80.9519 283.902 84.3867 284.028 88.4413C284.368 99.5333 280.486 105.21 272.376 105.457C268.75 105.569 265.544 103.798 262.762 100.148Z" fill="#9B7B7E"/>
<path d="M292.421 54.1867C292.477 55.3704 292.188 56.5029 291.554 57.5795C290.925 58.6607 290.198 59.22 289.382 59.2573L289.242 59.2666C286.59 57.3884 283.952 55.5475 281.315 53.7532C278.215 51.8937 275.158 51.0362 272.157 51.176C269.878 51.2878 267.725 52.5042 265.693 54.8345C263.656 57.1694 262.179 58.3578 261.275 58.3998C260.543 58.437 259.82 58.0129 259.093 57.1368C258.362 56.2559 257.98 55.3658 257.938 54.4523C257.812 51.8145 259.354 48.7479 262.565 45.2665C265.777 41.7804 268.75 39.9768 271.486 39.8463C276.398 39.6133 281.072 40.9649 285.5 43.901C289.932 46.8417 292.234 50.2719 292.421 54.1867ZM251.483 48.3238C251.627 51.3251 250.961 53.5994 249.483 55.1281C248.794 55.981 247.377 56.8711 245.228 57.7939C238.433 60.7626 234.071 63.1581 232.151 64.9804C230.93 66.1362 229.756 67.3339 228.628 68.5736C227.043 69.8366 225.207 70.517 223.11 70.6149C221.106 70.7128 220.062 69.8506 219.978 68.0237C219.922 66.8446 220.407 64.6495 221.446 61.4524C222.476 58.2599 222.979 56.2466 222.937 55.4264C222.914 54.8811 222.537 54.6248 221.809 54.662C221.716 54.6667 217.76 57.0016 209.953 61.6574C205.61 64.2347 202.972 65.5489 202.063 65.5909C201.788 65.6002 201.56 65.5676 201.373 65.4837C199.183 65.4045 198.041 64.4118 197.948 62.4963C197.785 59.0429 200.562 56.0788 206.29 53.6134C208.979 52.6673 211.72 51.7166 214.502 50.7659C218.179 49.405 221.381 47.6946 224.116 45.6533L224.764 44.9403L224.037 44.0128C220.183 41.5521 218.226 39.8603 218.184 38.9515C218.039 35.9455 221.25 34.2864 227.808 33.9788C234.542 33.6572 240.125 34.8783 244.543 37.6326C248.966 40.3916 251.278 43.9569 251.483 48.3238ZM353.133 61.4384C353.249 63.8059 352.527 65.027 350.98 65.0969C350.709 65.1109 349.348 64.216 346.888 62.4171C343.583 60.1102 340.386 58.1155 337.296 56.4377C332.804 54.0935 329.327 52.9843 326.866 53.1008C324.41 53.2173 323.315 56.0975 323.585 61.746C323.637 62.9251 324.228 64.7706 325.347 67.2733C324.75 68.1215 324.042 68.5643 323.222 68.6016C322.131 68.6528 320.304 67.7813 317.76 65.9917C314.833 63.8432 311.846 61.0236 308.802 57.5143C305.759 54.0096 304.193 51.2972 304.104 49.391C304.17 48.8364 304.202 48.6081 304.207 48.6966C306.141 47.1447 307.553 45.1174 308.439 42.61C308.76 41.7758 309.38 39.371 310.284 35.4049C310.895 32.9115 311.696 31.4575 312.684 31.0473C315.905 29.7983 319.703 29.0713 324.075 28.8616C327.533 28.6985 329.35 30.3483 329.513 33.8064C329.621 36.0853 329.057 37.7538 327.836 38.8164C325.897 40.2798 324 41.7385 322.159 43.1926L321.67 44.4509C342.227 46.9443 352.718 52.6021 353.133 61.4384ZM306.421 8.75622C306.449 9.3015 304.673 11.3288 301.089 14.8242C297.524 18.3289 295.529 21.1158 295.124 23.1851C294.723 25.259 294.383 27.3516 294.122 29.4628C293.427 32.1472 291.899 33.5407 289.531 33.6526C287.075 33.7691 283.938 32.1798 280.136 28.8942C276.323 25.6086 273.331 24.0147 271.15 24.1172C270.507 24.1498 268.96 25.6179 266.499 28.5167C264.029 31.4155 262.258 32.8929 261.158 32.9442C259.429 33.0234 256.67 29.6865 252.881 22.9334C251.776 20.8828 249.456 19.0373 245.914 17.3735C243.01 15.9613 241.528 14.4327 241.444 12.7969C241.342 10.5225 242.926 9.3015 246.207 9.14771C248.845 9.02187 252.028 10.2662 255.761 12.8714C259.49 15.4766 261.629 16.7676 262.174 16.7396C263.176 16.693 264.281 15.0479 265.497 11.7902C266.187 9.11508 266.928 6.43063 267.715 3.74619C268.517 1.42993 270.237 0.204224 272.879 0.078392C274.878 -0.0148163 276.757 0.991844 278.5 3.09839C279.665 4.50585 281.641 7.69363 284.428 12.6757L285.551 13.3095C288.133 11.8135 290.706 10.3688 293.292 8.9706C296.228 7.46061 299.108 6.6357 301.933 6.5052C304.85 6.36539 306.341 7.11573 306.421 8.75622Z" fill="#9B7B7E"/>
<path d="M130.771 805.838C165.119 825.291 195.384 834.631 217.834 835.433C216.92 833.536 214.432 830.73 210.368 827.011C206.299 823.292 203.792 819.843 202.841 816.669L202.794 815.066L204.388 815.02C209.622 818.492 214.851 821.801 220.075 824.951C225.3 828.102 230.254 829.607 234.952 829.458C238.363 829.355 242.46 828.749 247.227 827.64C252 826.531 255.029 825.958 256.311 825.921C259.512 825.823 261.139 826.843 261.204 828.973C261.619 842.419 254.148 849.377 238.778 849.843C218.081 850.481 194.862 845.644 169.132 835.325C155.481 828.913 143.988 823.795 140.717 821.54C127.061 815.127 118.831 811.133 118.733 807.931C118.682 806.225 117.367 803.466 118.211 803.219H122.401L130.771 805.838ZM420.831 800.045L420.281 802.94C413.178 815.337 394.131 827.883 363.124 840.582C347.302 847.051 334.91 850.416 325.948 850.691C316.99 850.971 311.216 850.822 308.639 850.262C304.733 848.254 302.002 846.413 300.459 844.749C295.911 842.754 293.52 838.019 293.296 830.553C293.189 827.137 294.308 825.389 296.657 825.324C297.938 825.282 300.301 825.907 303.764 827.188C307.217 828.47 309.692 829.085 311.188 829.043C318.654 828.815 325.006 827.011 330.245 823.646C333.591 821.414 338.573 816.777 345.196 809.735L347.088 808.714C347.787 810.611 348.146 811.888 348.164 812.526C348.262 815.723 345.61 819.867 340.218 824.947C333.987 830.693 330.473 834.748 329.695 837.124L335.143 836.957C349.646 836.509 368.792 830.474 392.569 818.851C404.985 812.703 412.838 807.549 416.124 803.392L418.897 799.78L420.831 800.045ZM286.357 829.001C289.139 832.655 290.598 836.831 290.747 841.519C290.85 844.94 289.288 848.03 286.063 850.794C282.833 853.567 279.413 855.007 275.787 855.114C273.014 855.202 270.562 853.837 268.451 851.017C266.331 848.198 265.217 844.768 265.091 840.704C264.751 829.616 268.633 823.94 276.742 823.688C280.368 823.581 283.575 825.352 286.357 829.001Z" fill="#9B7B7E"/>
<path d="M256.697 874.963C256.642 873.779 256.93 872.647 257.564 871.565C258.193 870.489 258.921 869.93 259.741 869.888L259.876 869.883C262.528 871.761 265.166 873.602 267.803 875.396C270.907 877.256 273.96 878.113 276.961 877.974C279.245 877.862 281.398 876.641 283.425 874.31C285.467 871.976 286.939 870.787 287.848 870.75C288.58 870.713 289.298 871.137 290.025 872.013C290.756 872.889 291.138 873.784 291.18 874.697C291.306 877.335 289.768 880.397 286.553 883.883C283.341 887.364 280.368 889.173 277.637 889.303C272.72 889.536 268.046 888.185 263.623 885.244C259.191 882.303 256.884 878.878 256.697 874.963ZM297.635 880.826C297.495 877.82 298.157 875.55 299.639 874.021C300.324 873.169 301.741 872.278 303.89 871.356C310.689 868.387 315.047 865.987 316.967 864.169C318.188 863.013 319.362 861.816 320.49 860.576C322.075 859.313 323.916 858.633 326.004 858.535C328.012 858.437 329.052 859.299 329.14 861.121C329.201 862.305 328.707 864.5 327.672 867.697C326.642 870.89 326.139 872.903 326.181 873.719C326.204 874.268 326.581 874.52 327.309 874.488C327.406 874.483 331.358 872.148 339.165 867.492C343.513 864.915 346.146 863.601 347.06 863.559C347.33 863.549 347.558 863.582 347.745 863.661C349.94 863.745 351.077 864.738 351.17 866.653C351.333 870.107 348.556 873.071 342.828 875.531C340.139 876.482 337.398 877.433 334.616 878.384C330.944 879.745 327.737 881.455 325.002 883.496L324.354 884.209L325.081 885.137C328.94 887.597 330.892 889.285 330.939 890.198C331.079 893.204 327.868 894.863 321.31 895.171C314.576 895.488 308.997 894.271 304.57 891.517C300.152 888.758 297.84 885.193 297.635 880.826ZM195.985 867.711C195.873 865.344 196.591 864.123 198.138 864.048C198.409 864.039 199.774 864.934 202.23 866.732C205.539 869.039 208.732 871.029 211.826 872.712C216.314 875.056 219.791 876.165 222.252 876.044C224.708 875.932 225.803 873.052 225.533 867.404C225.477 866.224 224.89 864.379 223.771 861.876C224.368 861.028 225.076 860.585 225.896 860.543C226.987 860.497 228.814 861.364 231.358 863.158C234.285 865.306 237.277 868.121 240.316 871.635C243.359 875.135 244.925 877.848 245.014 879.759C244.948 880.313 244.916 880.537 244.911 880.453C242.977 882.005 241.565 884.028 240.679 886.535C240.358 887.374 239.743 889.779 238.834 893.745C238.228 896.233 237.422 897.692 236.434 898.102C233.213 899.347 229.415 900.078 225.043 900.288C221.585 900.451 219.768 898.801 219.605 895.339C219.497 893.064 220.061 891.391 221.282 890.333C223.226 888.87 225.118 887.411 226.964 885.957L227.448 884.699C206.891 882.205 196.405 876.547 195.985 867.711ZM242.697 920.393C242.674 919.848 244.445 917.816 248.029 914.321C251.599 910.821 253.589 908.034 253.994 905.96C254.395 903.886 254.735 901.798 254.996 899.687C255.691 897.002 257.219 895.609 259.587 895.492C262.048 895.381 265.18 896.97 268.982 900.255C272.795 903.541 275.787 905.135 277.968 905.028C278.611 905 280.158 903.532 282.619 900.633C285.094 897.734 286.865 896.257 287.96 896.205C289.689 896.122 292.448 899.463 296.237 906.216C297.342 908.267 299.662 910.112 303.204 911.771C306.113 913.184 307.595 914.712 307.674 916.353C307.781 918.627 306.192 919.848 302.911 920.002C300.278 920.123 297.09 918.883 293.357 916.278C289.628 913.673 287.489 912.382 286.944 912.405C285.942 912.457 284.837 914.102 283.621 917.359C282.931 920.034 282.195 922.714 281.403 925.399C280.601 927.72 278.881 928.945 276.239 929.067C274.24 929.164 272.361 928.153 270.618 926.051C269.458 924.644 267.482 921.456 264.69 916.469L263.567 915.84C260.985 917.336 258.413 918.776 255.831 920.179C252.89 921.689 250.01 922.509 247.185 922.644C244.268 922.784 242.777 922.034 242.697 920.393Z" fill="#9B7B7E"/>
<path d="M384.688 759.789C386.986 759.789 388.137 761.783 388.137 765.763C388.137 770.368 385.839 772.666 381.244 772.666C377.562 772.666 375.726 770.75 375.726 766.915C375.726 762.17 378.713 759.789 384.688 759.789ZM369.746 770.368C374.039 770.368 376.187 772.05 376.187 775.42C376.187 779.097 374.039 780.933 369.746 780.933C366.531 780.933 364.611 779.558 364.005 776.795C364.611 773.887 365.268 772.088 365.953 771.398C366.647 770.713 367.91 770.368 369.746 770.368ZM352.74 774.269C354.577 774.269 356.45 775.075 358.375 776.683C360.286 778.295 361.246 780.015 361.246 781.856C361.246 785.687 359.251 787.602 355.271 787.602C349.753 787.602 346.994 785.23 346.994 780.477C346.994 776.338 348.905 774.269 352.74 774.269ZM337.109 779.787C339.104 779.787 340.982 780.784 342.744 782.779C344.501 784.764 345.381 786.992 345.381 789.439C345.381 790.669 344.58 792.049 342.972 793.577C341.359 795.111 339.947 795.875 338.722 795.875C336.424 795.875 334.467 794.999 332.859 793.232C331.246 791.475 330.445 789.29 330.445 786.684C330.445 782.084 332.668 779.787 337.109 779.787ZM319.875 783.003C321.869 783.003 323.701 784.116 325.388 786.34C327.075 788.563 327.914 790.748 327.914 792.892C327.914 798.256 324.931 800.931 318.952 800.931C316.808 800.931 314.664 800.055 312.516 798.294C310.372 796.532 309.3 794.728 309.3 792.892C309.3 790.128 310.372 787.798 312.516 785.878C314.664 783.963 317.116 783.003 319.875 783.003ZM298.036 785.529C300.03 785.529 302.095 786.764 304.239 789.21C306.387 791.662 307.459 794.113 307.459 796.565C307.459 798.713 306.345 800.591 304.127 802.199C301.904 803.807 299.182 804.609 295.966 804.609C291.063 804.609 288.612 801.626 288.612 795.642C288.612 793.046 289.572 790.706 291.483 788.632C293.403 786.563 295.584 785.529 298.036 785.529ZM278.037 786.684C280.186 786.684 282.139 787.873 283.9 790.245C285.662 792.627 286.538 795.344 286.538 798.406C286.538 803.313 284.171 805.76 279.417 805.76C276.965 805.76 274.705 804.953 272.64 803.346C270.567 801.738 269.537 799.78 269.537 797.487C269.537 794.728 270.375 792.24 272.063 790.012C273.75 787.798 275.74 786.684 278.037 786.684ZM260.341 785.995C262.178 785.995 263.828 786.913 265.282 788.749C266.74 790.59 267.467 792.813 267.467 795.418C267.467 801.244 264.862 804.157 259.652 804.157C256.893 804.157 254.516 803.425 252.526 801.971C250.536 800.512 249.534 798.788 249.534 796.793C249.534 794.192 250.648 791.736 252.871 789.439C255.094 787.141 257.582 785.995 260.341 785.995ZM237.584 783.003C244.482 783.003 247.926 785.995 247.926 791.965C247.926 793.964 247.087 795.875 245.4 797.716C243.713 799.552 241.877 800.47 239.882 800.47C238.046 800.47 235.939 799.631 233.562 797.949C231.185 796.262 230.002 794.649 230.002 793.116C230.002 790.823 230.803 788.563 232.416 786.34C234.024 784.116 235.748 783.003 237.584 783.003ZM218.048 779.787C220.653 779.787 222.95 780.551 224.945 782.084C226.935 783.618 227.932 785.459 227.932 787.602C227.932 789.751 226.935 791.816 224.945 793.81C222.95 795.8 220.802 796.793 218.504 796.793C216.668 796.793 214.944 795.917 213.336 794.155C211.728 792.393 210.922 790.441 210.922 788.292C210.922 785.995 211.649 784 213.107 782.313C214.566 780.63 216.211 779.787 218.048 779.787ZM202.416 775.187C203.95 775.187 205.557 775.961 207.245 777.485C208.932 779.018 209.77 780.705 209.77 782.546C209.77 784.694 209.123 786.647 207.818 788.409C206.517 790.17 205.026 791.047 203.334 791.047C201.037 791.047 199.047 790.282 197.36 788.749C195.677 787.22 194.834 785.305 194.834 783.003C194.834 781.166 195.635 779.405 197.248 777.718C198.856 776.031 200.58 775.187 202.416 775.187ZM186.095 769.669C191.921 769.669 194.834 771.967 194.834 776.571C194.834 781.166 192.536 783.464 187.936 783.464C182.572 783.464 179.892 781.246 179.892 776.795C179.892 772.05 181.961 769.669 186.095 769.669ZM171.158 762.319C172.538 762.319 173.997 763.004 175.525 764.384C177.059 765.763 177.823 767.222 177.823 768.755V771.281C177.823 772.666 177.361 773.929 176.443 775.075C175.525 776.226 174.528 776.795 173.456 776.795C172.076 776.795 170.394 775.961 168.399 774.269C166.409 772.586 165.412 771.053 165.412 769.669C165.412 767.837 165.985 766.15 167.132 764.617C168.283 763.088 169.625 762.319 171.158 762.319Z" fill="#9B7B7E"/>
<path d="M515.473 295.542C514.727 294.564 515.067 292.056 516.494 288.053C518.293 282.721 519.169 278.438 519.122 275.208L518.633 275.581C515.79 277.739 513.711 277.944 512.388 276.201C511.805 275.437 511.908 272.86 512.7 268.469C514.238 260.761 515.193 255.22 515.557 251.845C514.597 251.71 513.786 251.897 513.133 252.4C512.695 252.722 512.211 253.267 511.665 254.031C511.12 254.786 510.687 255.29 510.356 255.541C507.741 257.531 504.861 256.45 501.706 252.307C501.207 251.654 500.942 250.568 500.9 249.045C500.867 247.525 501.198 246.323 501.906 245.442C505.63 240.371 506.488 234.033 504.497 226.432C501.091 229.881 499.557 231.479 499.879 231.237C495.521 234.55 492.054 234.513 489.481 231.134C487.654 228.739 487.342 224.586 488.535 218.691C490.027 211.36 490.549 206.056 490.12 202.771C489.547 199.07 488.391 194.955 486.662 190.425C486.247 189.875 485.669 189.455 484.928 189.157C485.198 200.832 483.045 208.405 478.464 211.891C477.15 212.888 475.411 213.089 473.24 212.506C471.082 211.91 469.371 210.796 468.127 209.165C466.137 206.546 465.074 198.916 464.93 186.291C464.809 179.328 464.669 174.957 464.52 173.181C463.835 168.879 462.204 165.044 459.636 161.665C458.307 159.917 456.527 157.913 454.29 155.658C456.08 173.4 454.686 184.012 450.105 187.498C448.469 188.738 446.307 189.176 443.622 188.812C440.928 188.444 438.962 187.447 437.717 185.811C435.396 182.758 434.851 177.063 436.091 168.721C437.317 159.698 437.084 153.504 435.387 150.149C431.109 157.876 428.373 162.196 427.175 163.105C423.354 166.013 420.245 165.883 417.84 162.718C415.762 159.992 415.575 156.012 417.267 150.764C419.057 147.684 420.935 143.237 422.892 137.449C423.004 133.744 422.1 129.964 420.185 126.077C418.828 123.16 418.53 121.403 419.29 120.82C420.921 119.576 422.846 119.502 425.046 120.578C425.479 120.937 428.275 123.025 433.43 126.856C451.797 140.6 467.652 156.249 481.004 173.81C503.314 203.148 516.908 230.072 521.779 254.6C524.016 265.459 524.64 275.232 523.657 283.891C523.046 290.555 521.979 294.47 520.446 295.635L518.157 297.374C516.615 296.479 515.725 295.868 515.473 295.542Z" fill="#9B7B7E"/>
<path d="M23.1701 645.302C23.9764 646.234 23.79 648.756 22.6155 652.843C21.1428 658.277 20.5323 662.602 20.7793 665.822L21.25 665.422C23.9484 663.091 26.013 662.76 27.4438 664.42C28.0729 665.147 28.1242 667.729 27.6069 672.156C26.5443 679.948 25.9338 685.536 25.7846 688.92C26.7494 688.999 27.5417 688.761 28.1662 688.221C28.5809 687.871 29.0377 687.298 29.5317 686.506C30.0257 685.713 30.4312 685.187 30.7434 684.916C33.2275 682.768 36.1775 683.667 39.5797 687.606C40.111 688.23 40.4466 689.297 40.5817 690.817C40.7075 692.331 40.4512 693.552 39.7987 694.475C36.3966 699.765 35.9305 706.14 38.3866 713.602C41.5744 709.953 43.0052 708.265 42.6976 708.526C46.8454 704.952 50.3082 704.775 53.0811 707.986C55.0525 710.265 55.6211 714.389 54.7962 720.35C53.7569 727.756 53.5612 733.083 54.1997 736.331C54.9966 739.989 56.3994 744.035 58.4081 748.448C58.8555 748.966 59.4567 749.352 60.2164 749.604C59.2283 737.971 60.9108 730.272 65.2683 726.516C66.5127 725.435 68.2371 725.132 70.4415 725.584C72.6366 726.036 74.4076 727.043 75.7498 728.599C77.8983 731.088 79.4316 738.638 80.3497 751.231C80.9089 758.175 81.3144 762.528 81.5707 764.289C82.5215 768.54 84.3857 772.273 87.1587 775.488C88.5894 777.143 90.4909 779.035 92.8631 781.146C89.9783 763.548 90.7193 752.871 95.0815 749.11C96.6334 747.772 98.7633 747.199 101.466 747.4C104.174 747.6 106.197 748.476 107.544 750.033C110.046 752.936 110.941 758.589 110.223 766.988C109.552 776.076 110.168 782.237 112.069 785.48C115.863 777.502 118.328 773.023 119.47 772.04C123.1 768.908 126.214 768.847 128.809 771.853C131.046 774.449 131.48 778.415 130.119 783.751C128.525 786.935 126.922 791.488 125.323 797.388C125.435 801.093 126.572 804.812 128.726 808.569C130.264 811.402 130.664 813.136 129.947 813.76C128.395 815.107 126.479 815.303 124.219 814.357C123.757 814.031 120.84 812.115 115.462 808.61C96.2792 796.022 79.4875 781.379 65.0819 764.676C41.0058 736.774 25.78 710.736 19.3998 686.557C16.501 675.856 15.2752 666.144 15.718 657.438C15.9184 650.75 16.748 646.775 18.202 645.521L20.3785 643.643C21.9677 644.44 22.8998 644.995 23.1701 645.302Z" fill="#9B7B7E"/>
<path d="M514.408 637.442L516.626 639.278C518.104 640.499 519.013 644.451 519.353 651.135C519.977 659.836 518.957 669.572 516.272 680.323C510.405 704.628 495.715 730.973 472.226 759.374C458.17 776.376 441.681 791.364 422.76 804.344C417.461 807.96 414.585 809.936 414.128 810.272C411.891 811.26 409.971 811.101 408.391 809.792C407.65 809.186 408.023 807.443 409.5 804.572C411.574 800.778 412.632 797.036 412.67 793.331C410.95 787.459 409.258 782.947 407.594 779.797C406.122 774.484 406.476 770.513 408.657 767.871C411.192 764.813 414.305 764.809 417.997 767.866C419.162 768.826 421.72 773.253 425.677 781.148C427.509 777.867 427.993 771.692 427.136 762.623C426.246 754.243 427.024 748.571 429.466 745.617C430.78 744.027 432.784 743.114 435.483 742.858C438.186 742.597 440.325 743.128 441.91 744.438C446.346 748.105 447.306 758.769 444.79 776.423C447.12 774.26 448.979 772.331 450.378 770.639C453.081 767.367 454.866 763.597 455.728 759.333C455.947 757.562 456.264 753.204 456.674 746.251C457.336 733.639 458.715 726.066 460.808 723.531C462.117 721.946 463.865 720.902 466.056 720.403C468.251 719.905 469.98 720.18 471.243 721.228C475.679 724.896 477.525 732.549 476.779 744.205C477.525 743.939 478.122 743.543 478.56 743.007C480.48 738.551 481.789 734.483 482.512 730.81C483.08 727.553 482.777 722.23 481.584 714.844C480.638 708.906 481.123 704.772 483.048 702.447C485.755 699.18 489.213 699.287 493.436 702.777C493.124 702.517 494.592 704.176 497.854 707.76C500.156 700.247 499.55 693.876 496.046 688.661C495.37 687.757 495.09 686.54 495.188 685.021C495.286 683.506 495.603 682.425 496.125 681.801C499.443 677.779 502.37 676.823 504.905 678.92C505.222 679.186 505.632 679.703 506.145 680.477C506.653 681.265 507.128 681.824 507.543 682.173C508.177 682.695 508.979 682.919 509.943 682.821C509.72 679.438 508.997 673.864 507.776 666.095C507.161 661.681 507.156 659.099 507.772 658.358C509.17 656.671 511.239 656.96 513.989 659.23L514.464 659.626C514.641 656.401 513.942 652.09 512.367 646.679C511.099 642.62 510.861 640.113 511.649 639.162C511.91 638.845 512.833 638.272 514.408 637.442Z" fill="#9B7B7E"/>
<path d="M391.137 468.274C390.098 467.249 389.595 466.368 389.623 465.631C389.636 465.137 390.317 464.48 391.659 463.66C393.001 462.84 393.686 462.183 393.705 461.689C393.719 461.278 393.192 460.976 392.13 460.775C390.736 460.477 389.348 460.225 387.954 460.02C384.198 459.149 382.357 457.485 382.441 455.019C382.562 451.314 384.808 449.539 389.161 449.683C389.25 449.688 389.487 449.734 389.897 449.832C390.308 449.846 390.68 449.86 391.011 449.87C392.405 449.916 393.407 449.497 394.013 448.611C393.332 444.473 392.978 442.772 392.95 443.513C393.034 440.879 394.19 439.603 396.413 439.677C397.811 439.724 402.485 443.997 410.436 452.493C411.788 453.938 412.445 455.029 412.422 455.77C412.398 456.595 411.41 457.755 409.467 459.251C400.011 466.344 394.786 469.877 393.798 469.84C393.062 469.816 392.176 469.295 391.137 468.274ZM411.825 486.557C411.41 485.597 411.233 484.008 411.308 481.789C411.312 481.622 411.364 481.398 411.452 481.114C411.545 480.825 411.597 480.643 411.597 480.564C411.625 479.659 411.233 479.193 410.408 479.165C409.835 479.147 409.015 479.673 407.948 480.75C406.88 481.827 406.102 482.358 405.608 482.339C405.03 482.321 404.173 481.552 403.035 480.028C401.894 478.513 401.334 477.297 401.362 476.397C401.386 475.731 402.42 474.328 404.466 472.175C408.726 467.873 411.415 465.077 412.524 463.8C414.062 462.122 415.614 461.306 417.175 461.362C418.243 461.395 419.221 461.717 420.107 462.327C425.508 470.655 428.197 475.19 428.174 475.931C428.132 477.078 427.703 477.805 426.864 478.107C426.282 478.336 424.921 478.415 422.782 478.345L420.568 478.024C420.312 478.424 420.172 478.751 420.167 478.998C420.163 479.161 420.233 479.571 420.372 480.242C420.517 480.899 420.577 481.519 420.554 482.097C420.419 486.207 418.709 488.207 415.418 488.095C413.447 488.034 412.249 487.517 411.825 486.557ZM414.784 447.824C413.918 446.808 412.426 444.491 410.324 440.884C410.171 440.628 409.033 438.987 406.908 435.949C405.655 434.098 405.039 432.719 405.072 431.815C405.086 431.321 405.314 430.668 405.757 429.862C407.966 430.1 409.868 430.636 411.438 431.475C413.018 432.309 413.685 432.724 413.438 432.714C413.932 432.728 414.183 432.57 414.193 432.244C414.216 431.666 414.118 430.822 413.913 429.704C413.699 428.585 413.601 427.779 413.619 427.285C413.68 425.472 414.309 424.013 415.498 422.904C416.686 421.785 418.187 421.263 419.99 421.319C421.803 421.38 422.922 422.284 423.36 424.027C423.798 425.77 424.189 427.555 424.539 429.377C425.685 432.132 426.58 433.521 427.242 433.544C427.568 433.553 428.197 433.283 429.12 432.738C430.048 432.192 430.84 431.936 431.492 431.955C432.727 431.997 433.324 432.593 433.287 433.744C433.179 437.03 431.101 441.248 427.06 446.379C424.651 449.427 422.502 450.918 420.61 450.858C418.392 450.783 416.453 449.772 414.784 447.824ZM427.326 464.415C424.483 460.701 423.08 458.184 423.127 456.865C423.187 455.145 425.601 452.629 430.36 449.334C435.123 446.029 438.199 444.403 439.597 444.454C440.664 444.487 441.578 444.869 442.333 445.591C443.092 446.318 443.46 447.129 443.428 448.038C443.409 448.611 443.078 449.404 442.426 450.41C441.773 451.417 441.442 452.13 441.429 452.54C441.373 454.181 442.044 455.029 443.442 455.075C443.931 455.089 444.514 455.052 445.176 454.95C445.837 454.847 446.205 454.796 446.289 454.8C448.102 454.861 448.955 456.292 448.867 459.083C448.787 461.386 447.245 462.611 444.234 462.756C441.223 462.905 439.709 463.348 439.681 464.089C439.671 464.336 439.956 464.629 440.52 464.979C441.391 465.916 441.811 466.913 441.773 467.985C441.713 469.961 439.499 470.874 435.137 470.73C433.086 470.66 430.476 468.558 427.326 464.415ZM478.857 526.148C478.218 523.165 477.575 520.178 476.932 517.2C470.435 497.299 462.541 487.2 453.243 486.893C451.686 486.841 450.269 487.41 448.992 488.603C450.917 489.982 451.831 492.192 451.733 495.239C451.644 497.789 450.372 500.277 447.902 502.706C445.432 505.134 442.887 506.303 440.254 506.215C437.374 506.122 435.044 505.054 433.259 503.022C431.474 500.986 430.635 498.441 430.737 495.403C430.835 492.527 431.814 489.717 433.669 486.981C435.533 484.241 437.877 482.344 440.715 481.286C445.968 479.24 448.764 478.098 449.104 477.86C450.875 476.518 451.831 473.797 451.971 469.686C451.985 469.271 451.957 468.773 451.896 468.199C451.915 467.621 451.929 467.253 451.933 467.09C452.003 465.03 453.308 462.896 455.848 460.677C458.64 458.38 461.562 457.284 464.605 457.387C470.608 457.587 473.525 460.155 473.362 465.086C473.302 466.899 472.887 468.162 472.122 468.875C471.531 469.346 470.324 469.803 468.497 470.236C465.262 470.949 463.589 472.911 463.482 476.117C463.412 478.341 464.284 480.47 466.11 482.502C466.824 483.351 469.219 485.569 473.297 489.167C477.38 492.755 479.379 495.789 479.295 498.255C479.281 498.581 479.169 498.912 478.95 499.234C478.736 499.55 478.619 499.797 478.619 499.961C478.619 499.797 479.91 503.134 482.487 509.971C485.209 517.218 486.519 522.331 486.416 525.29C486.332 527.84 485.218 529.075 483.084 529.009C480.698 528.925 479.29 527.975 478.857 526.148ZM455.098 449.907C453.178 448.276 452.236 446.808 452.278 445.493L452.339 443.764C452.493 439.155 451.859 435.846 450.451 433.819C449.5 432.472 448.023 431.232 446 430.095C444.462 429.303 442.887 428.464 441.27 427.592C437.001 424.731 434.974 420.047 435.193 413.555C435.426 406.648 439.159 403.316 446.392 403.558C452.232 403.754 455.032 407.468 454.79 414.706C454.753 415.694 454.319 417.777 453.471 420.956C454.198 421.226 454.977 421.38 455.801 421.408C460.327 421.557 463.981 420.522 466.772 418.313C472.603 413.648 477.258 408.578 480.74 403.097C483.867 398.096 485.493 393.79 485.615 390.173L485.657 388.938C485.694 387.866 486.402 387.358 487.805 387.405C490.191 387.484 491.314 389.577 491.179 393.687C491.058 397.145 489.609 401.172 486.822 405.767C483.517 411.01 481.676 414.366 481.304 415.834C480.255 417.53 478.596 419.283 476.308 421.1C475.124 422.051 472.724 423.78 469.102 426.297C464.465 429.433 462.098 432.523 461.995 435.567C461.953 436.802 462.331 437.841 463.123 438.689C463.282 438.945 464.284 439.798 466.129 441.262C469.014 443.662 470.421 445.806 470.361 447.698C470.31 449.096 469.489 450.326 467.891 451.384C466.292 452.442 464.503 452.936 462.531 452.871C459.814 452.782 457.339 451.79 455.098 449.907Z" fill="#9B7B7E"/>
<path d="M518.14 310.118L520.368 311.521C528.333 321.429 532.541 341.297 532.984 371.128C533.198 386.34 531.963 397.707 529.279 405.229C526.59 412.746 524.6 417.486 523.29 419.439C520.359 422.021 517.944 423.689 516.066 424.426C512.934 427.548 508.237 427.991 501.964 425.749C499.107 424.729 498.025 423.233 498.725 421.261C499.111 420.189 500.393 418.428 502.579 415.981C504.769 413.529 506.083 411.679 506.531 410.426C508.768 404.162 509.341 398.318 508.26 392.879C507.491 389.379 505.268 383.74 501.586 375.961L501.353 374.06C503.157 374.102 504.326 374.218 504.862 374.405C507.552 375.365 510.119 378.911 512.576 385.035C515.316 392.063 517.534 396.295 519.245 397.712L520.876 393.144C525.229 380.976 526.445 363.145 524.544 339.651C523.481 327.371 521.761 319.183 519.389 315.105L517.297 311.637L518.14 310.118Z" fill="#9B7B7E"/>
<path d="M485.175 449.182C488.214 446.977 491.663 445.859 495.503 445.831C498.299 445.812 500.802 447.15 503.002 449.843C505.206 452.537 506.315 455.371 506.334 458.34C506.352 460.609 505.187 462.585 502.838 464.258C500.49 465.936 497.661 466.784 494.338 466.812C485.259 466.873 480.687 463.587 480.64 456.946C480.622 453.973 482.137 451.391 485.175 449.182Z" fill="#9B7B7E"/>
<path d="M520.648 621.048L522.517 617.343C524.637 612.99 525.649 593.477 525.798 580.842C525.956 556.696 523.346 538.572 517.978 526.468L515.96 521.924C514.324 523.504 512.376 527.997 510.111 535.389C508.069 541.834 505.716 545.646 503.041 546.835C502.505 547.068 501.326 547.278 499.485 547.455L499.578 545.497C502.742 537.267 504.588 531.339 505.105 527.703C505.795 522.064 504.765 516.136 502.001 509.905C501.447 508.661 499.965 506.866 497.537 504.531C495.122 502.197 493.673 500.5 493.198 499.428C492.331 497.471 493.328 495.858 496.166 494.595C502.402 491.827 507.235 491.925 510.67 494.875C512.651 495.485 515.242 497.005 518.439 499.419C519.926 501.32 522.321 506.004 525.639 513.484C528.953 520.96 531.083 532.48 532.02 548.042C533.842 578.554 531.176 610.203 523.794 620.937L521.627 622.535L520.648 621.048Z" fill="#9B7B7E"/>
<path d="M68.1593 370.729C66.2345 358.057 66.1227 342.748 67.8237 324.8C69.2499 309.481 71.2306 298.086 73.7705 290.611C76.4689 282.66 79.9084 275.357 84.0982 268.707C87.0949 264.545 90.031 260.406 92.9158 256.3C98.513 248.103 102.419 240.73 104.632 234.21C108.058 224.124 108.929 217.539 107.27 214.426L101.272 207.65C98.527 204.611 97.5716 201.88 98.3965 199.433C99.0397 197.55 100.149 196.87 101.724 197.406C106.208 198.925 109.568 202.215 111.8 207.277C114.032 212.333 114.2 217.656 112.303 223.248C111.954 224.269 111.376 225.849 110.56 227.993C109.749 230.127 109.139 231.786 108.743 232.965L107.978 235.207C107.764 235.836 107.937 236.246 108.482 236.433C109.036 236.619 110.528 235.589 112.951 233.343C117.663 229.06 121.648 225.583 124.919 222.922C129.911 218.825 134.436 215.703 138.495 213.573C142.135 211.648 144.577 210.903 145.84 211.327C147.495 211.891 148.026 213.037 147.439 214.766C147.015 216.02 145.612 217.245 143.24 218.411C140.868 219.576 138.486 220.722 136.086 221.841C129.254 225.662 123.298 229.917 118.194 234.596C114.126 238.306 111.809 240.986 111.25 242.636C110.826 243.899 111.115 244.7 112.145 245.045C112.933 245.311 114.545 245.465 116.992 245.507C119.439 245.549 121.205 245.758 122.309 246.127C125.772 247.31 128.382 249.375 130.139 252.339C131.896 255.308 132.269 258.286 131.258 261.273C129.654 265.999 124.528 268.296 115.883 268.175C110.202 268.091 106.52 269.121 104.823 271.265L106.716 271.908C109.391 272.812 110.444 274.099 109.885 275.749C109.67 276.373 109.064 276.741 108.067 276.844C106.324 277.044 105.317 277.184 105.024 277.263C101.239 278.344 97.32 280.829 93.2747 284.725C89.4717 288.434 87.0622 291.79 86.0416 294.782C85.4031 296.674 85.8691 297.881 87.4444 298.417C88.6235 298.818 90.4504 299.06 92.9205 299.158C95.3905 299.251 97.1429 299.466 98.1635 299.815C105.327 302.248 108.039 306.018 106.296 311.131C105.341 313.965 103.435 316.216 100.587 317.889C98.1868 319.268 94.4957 320.555 89.523 321.766C82.8398 323.355 78.4543 327.224 76.3711 333.362L75.0894 337.141C74.6374 338.479 75.0382 339.369 76.2965 339.793C76.9257 340.003 77.965 340.096 79.4284 340.063C80.8871 340.031 81.8518 340.101 82.3272 340.259C82.4064 340.287 82.5509 340.287 82.7792 340.282C83.0029 340.264 83.194 340.282 83.3525 340.338C83.9863 340.553 84.1867 340.977 83.9723 341.606C84.1075 341.214 82.8911 342.23 80.3092 344.64C77.7366 347.054 75.8025 350.153 74.5209 353.928C71.9809 361.408 73.9849 370.911 80.5142 382.437C82.3691 385.512 84.21 388.602 86.0649 391.692C87.3885 393.981 87.8965 395.607 87.5749 396.544C86.9084 398.515 85.706 399.205 83.977 398.618C75.947 395.891 70.676 386.598 68.1593 370.729Z" fill="#9B7B7E"/>
<path d="M462.223 391.788C460.578 392.347 459.436 391.69 458.807 389.816C458.499 388.926 458.979 387.388 460.238 385.212C461.995 382.28 463.747 379.349 465.504 376.427C471.707 365.489 473.604 356.466 471.199 349.368C469.978 345.784 468.147 342.843 465.7 340.555C463.253 338.262 462.102 337.297 462.223 337.67C462.018 337.069 462.214 336.673 462.815 336.468C462.964 336.417 463.146 336.398 463.36 336.412C463.57 336.417 463.71 336.421 463.789 336.393C464.237 336.24 465.155 336.174 466.539 336.207C467.928 336.24 468.916 336.151 469.512 335.951C470.705 335.545 471.087 334.702 470.659 333.434L469.442 329.845C467.462 324.015 463.3 320.347 456.957 318.837C452.231 317.691 448.731 316.465 446.452 315.16C443.754 313.571 441.941 311.432 441.037 308.747C439.387 303.891 441.955 300.312 448.754 298C449.724 297.674 451.388 297.464 453.732 297.376C456.081 297.287 457.81 297.054 458.928 296.677C460.424 296.169 460.867 295.022 460.256 293.223C459.292 290.385 457.008 287.202 453.392 283.679C449.551 279.978 445.837 277.62 442.244 276.595C441.964 276.52 441.004 276.39 439.359 276.198C438.408 276.101 437.835 275.756 437.63 275.159C437.099 273.589 438.096 272.372 440.636 271.51L442.435 270.904C440.822 268.868 437.327 267.893 431.939 267.973C423.728 268.089 418.862 265.903 417.343 261.42C416.383 258.582 416.732 255.758 418.405 252.938C420.074 250.128 422.548 248.166 425.834 247.042C426.883 246.688 428.561 246.493 430.881 246.451C433.202 246.413 434.736 246.269 435.486 246.017C436.46 245.686 436.735 244.927 436.33 243.724C435.803 242.163 433.603 239.618 429.74 236.095C424.897 231.658 419.24 227.618 412.757 223.987C410.478 222.924 408.217 221.839 405.971 220.734C403.715 219.625 402.383 218.464 401.982 217.276C401.422 215.631 401.926 214.545 403.496 214.009C404.694 213.608 407.015 214.316 410.473 216.143C414.323 218.166 418.624 221.125 423.359 225.012C426.463 227.543 430.252 230.843 434.717 234.907C437.019 237.036 438.436 238.015 438.963 237.838C439.48 237.661 439.638 237.269 439.433 236.678L438.716 234.552C438.338 233.429 437.76 231.854 436.987 229.827C436.213 227.795 435.663 226.294 435.332 225.325C433.533 220.021 433.692 214.964 435.812 210.164C437.928 205.359 441.121 202.237 445.376 200.796C446.872 200.284 447.925 200.932 448.531 202.721C449.318 205.037 448.41 207.633 445.809 210.518L440.114 216.95C438.534 219.909 439.368 226.154 442.617 235.727C444.718 241.921 448.423 248.921 453.736 256.699C456.472 260.595 459.259 264.524 462.107 268.476C466.082 274.791 469.349 281.716 471.908 289.266C474.322 296.36 476.2 307.177 477.556 321.717C479.169 338.752 479.062 353.288 477.235 365.312C474.848 380.379 469.843 389.201 462.223 391.788Z" fill="#9B7B7E"/>
<path d="M373.196 153.159C371.998 153.159 370.74 152.562 369.412 151.369C368.084 150.176 367.422 148.908 367.422 147.58V145.394C367.422 144.197 367.823 143.101 368.62 142.109C369.412 141.111 370.274 140.617 371.206 140.617C372.399 140.617 373.863 141.344 375.587 142.803C377.311 144.262 378.174 145.59 378.174 146.788C378.174 148.382 377.68 149.84 376.682 151.169C375.685 152.492 374.52 153.159 373.196 153.159ZM360.254 146.788C355.207 146.788 352.685 144.798 352.685 140.813C352.685 136.828 354.675 134.838 358.66 134.838C363.307 134.838 365.628 136.758 365.628 140.617C365.628 144.728 363.833 146.788 360.254 146.788ZM346.109 142.006C344.781 142.006 343.388 141.344 341.929 140.016C340.47 138.693 339.739 137.229 339.739 135.635C339.739 133.776 340.298 132.084 341.435 130.555C342.558 129.027 343.854 128.267 345.317 128.267C347.307 128.267 349.027 128.929 350.495 130.257C351.949 131.585 352.685 133.244 352.685 135.239C352.685 136.828 351.986 138.352 350.593 139.816C349.199 141.279 347.703 142.006 346.109 142.006ZM332.566 138.021C330.31 138.021 328.32 137.36 326.591 136.031C324.867 134.703 324.005 133.114 324.005 131.25C324.005 129.39 324.867 127.601 326.591 125.876C328.32 124.147 330.18 123.285 332.17 123.285C333.764 123.285 335.255 124.045 336.653 125.578C338.047 127.102 338.741 128.794 338.741 130.653C338.741 132.648 338.112 134.372 336.849 135.836C335.586 137.294 334.16 138.021 332.566 138.021ZM315.639 135.239C309.664 135.239 306.682 132.648 306.682 127.47C306.682 125.741 307.409 124.082 308.867 122.488C310.331 120.899 311.925 120.102 313.649 120.102C315.243 120.102 317.065 120.829 319.125 122.288C321.18 123.746 322.215 125.144 322.215 126.473C322.215 128.463 321.516 130.42 320.118 132.35C318.724 134.274 317.233 135.239 315.639 135.239ZM295.925 132.648C294.331 132.648 292.901 131.851 291.642 130.257C290.379 128.663 289.75 126.738 289.75 124.483C289.75 119.435 292.006 116.914 296.522 116.914C298.913 116.914 300.968 117.543 302.692 118.806C304.421 120.065 305.288 121.561 305.288 123.285C305.288 125.545 304.323 127.67 302.399 129.66C300.474 131.651 298.316 132.648 295.925 132.648ZM280.588 132.051C278.728 132.051 277.036 131.021 275.512 128.961C273.984 126.901 273.219 124.548 273.219 121.891C273.219 117.641 275.279 115.516 279.395 115.516C281.515 115.516 283.477 116.215 285.271 117.613C287.061 119.007 287.956 120.698 287.956 122.688C287.956 125.079 287.229 127.237 285.765 129.162C284.307 131.087 282.582 132.051 280.588 132.051ZM263.265 133.049C261.536 133.049 259.741 131.981 257.886 129.856C256.022 127.736 255.099 125.611 255.099 123.485C255.099 121.626 256.059 119.999 257.984 118.606C259.909 117.212 262.267 116.518 265.054 116.518C269.305 116.518 271.43 119.104 271.43 124.287C271.43 126.538 270.596 128.565 268.936 130.355C267.273 132.149 265.385 133.049 263.265 133.049ZM244.343 135.239C242.614 135.239 241.02 134.274 239.561 132.35C238.103 130.42 237.371 128.528 237.371 126.673C237.371 122.022 239.962 119.701 245.14 119.701C246.995 119.701 248.854 120.465 250.714 121.994C252.573 123.518 253.501 125.079 253.501 126.673C253.501 129.064 252.573 131.087 250.714 132.75C248.854 134.405 246.734 135.239 244.343 135.239ZM229.406 138.021C227.677 138.021 226.051 137.159 224.527 135.435C222.998 133.71 222.234 131.786 222.234 129.66C222.234 128.593 222.933 127.4 224.326 126.072C225.72 124.748 226.945 124.082 228.013 124.082C230.003 124.082 231.694 124.846 233.093 126.375C234.481 127.899 235.18 129.791 235.18 132.051C235.18 136.031 233.256 138.021 229.406 138.021ZM215.863 142.803C214.269 142.803 212.647 142.109 210.983 140.715C209.324 139.317 208.494 137.826 208.494 136.232C208.494 132.914 210.219 131.25 213.672 131.25C218.449 131.25 220.84 133.31 220.84 137.425C220.84 141.013 219.186 142.803 215.863 142.803ZM201.126 146.187C197.407 146.187 195.548 144.728 195.548 141.806C195.548 138.623 197.407 137.029 201.126 137.029C203.913 137.029 205.572 138.222 206.104 140.617C205.572 143.134 205.008 144.695 204.412 145.292C203.815 145.888 202.715 146.187 201.126 146.187ZM188.179 155.349C186.189 155.349 185.192 153.625 185.192 150.176C185.192 146.187 187.182 144.197 191.167 144.197C194.355 144.197 195.948 145.856 195.948 149.179C195.948 153.289 193.357 155.349 188.179 155.349Z" fill="#9B7B7E"/>
<path d="M460.248 538.224C460.248 538.224 495.836 592.659 467.919 682.672C467.919 682.672 503.511 621.265 497.928 582.191C495.542 565.484 487.465 576.604 484.669 594.052C481.882 611.497 486.762 553.581 460.248 538.224Z" fill="#9B7B7E"/>
<path d="M70.3212 535.521C70.3212 535.521 30.6744 587.075 51.6233 678.961C51.6233 678.961 20.8315 615.015 29.3881 576.473C33.0419 559.998 40.2517 571.71 41.7011 589.317C43.1505 606.924 42.7078 548.803 70.3212 535.521Z" fill="#9B7B7E"/>
<path d="M152.032 719.064C149.52 719.716 146.952 718.314 146.29 715.932C145.624 713.555 147.125 711.104 149.637 710.456C152.144 709.813 154.717 711.211 155.378 713.588C156.04 715.965 154.544 718.416 152.032 719.064Z" fill="#9B7B7E"/>
<path d="M167.568 722.173C165.056 722.82 162.488 721.418 161.826 719.041C161.16 716.664 162.66 714.212 165.168 713.565C167.68 712.917 170.252 714.315 170.914 716.697C171.576 719.073 170.08 721.525 167.568 722.173Z" fill="#9B7B7E"/>
<path d="M24.2695 305.041L22.0605 308.438C19.5438 312.428 17.5445 320.551 16.0578 332.794C13.3407 356.204 13.9466 374.063 17.866 386.38L19.3388 390.994C21.0958 389.638 23.4633 385.49 26.446 378.555C29.1118 372.525 31.8009 369.071 34.5226 368.204C35.0632 368.037 36.233 367.957 38.0413 367.981L37.743 369.873C33.7909 377.516 31.3768 383.076 30.4866 386.548C29.2143 391.945 29.5872 397.808 31.6052 404.146C32.0106 405.414 33.2596 407.311 35.3615 409.832C37.4587 412.353 38.6844 414.157 39.034 415.243C39.6678 417.237 38.5306 418.696 35.6365 419.614C29.2936 421.637 24.6144 421.036 21.5944 417.806C19.7396 417.004 17.386 415.252 14.5431 412.568C13.3034 410.573 11.4765 405.768 9.05305 398.162C6.6296 390.556 5.79071 379.152 6.53173 363.954C8.0091 334.16 12.9073 314.446 21.2076 304.817L23.4819 303.494L24.2695 305.041Z" fill="#9B7B7E"/>
<path d="M51.6066 443.615C48.6425 441.308 45.2404 440.069 41.4048 439.91C38.6038 439.794 36.0638 441.043 33.7662 443.662C31.4733 446.276 30.2662 449.068 30.145 452.037C30.0471 454.302 31.1424 456.32 33.4307 458.072C35.719 459.829 38.5199 460.78 41.8382 460.915C50.9122 461.292 55.5913 458.17 55.8663 451.529C55.9921 448.565 54.5707 445.931 51.6066 443.615Z" fill="#9B7B7E"/>
<path d="M9.17049 615.605L7.05928 613.927C0.0545635 602.947 -1.51136 571.228 1.36416 540.795C2.83688 525.271 5.36753 513.834 8.93746 506.48C12.5121 499.121 15.0753 494.521 16.618 492.671C19.8989 490.368 22.5414 488.937 24.5408 488.397C28.0781 485.573 32.911 485.643 39.0489 488.625C41.8452 489.986 42.782 491.627 41.8452 493.561C41.3325 494.609 39.8272 496.259 37.3292 498.505C34.8265 500.752 33.2792 502.49 32.6873 503.721C29.7046 509.854 28.4696 515.74 28.9683 521.398C29.3597 525.052 30.9956 531.04 33.8758 539.378L33.9037 541.335C32.0675 541.098 30.893 540.846 30.3664 540.59C27.7379 539.313 25.5148 535.417 23.6972 528.906C21.6932 521.444 19.9036 516.886 18.3144 515.255L16.1472 519.72C10.3589 531.628 7.12919 549.654 6.4441 573.791C6.15515 586.421 6.4907 605.962 8.45743 610.385L10.1958 614.151L9.17049 615.605Z" fill="#9B7B7E"/>
</svg>
