<?xml version="1.0" encoding="UTF-8"?>
<svg width="16px" height="16px" viewBox="0 0 16 16" version="1.1" xmlns="http://www.w3.org/2000/svg" xmlns:xlink="http://www.w3.org/1999/xlink">
    <!-- Generator: Sketch 48.2 (47327) - http://www.bohemiancoding.com/sketch -->
    <title>github</title>
    <desc>Created with Sketch.</desc>
    <defs></defs>
    <g id="Page-1" stroke="none" stroke-width="1" fill="none" fill-rule="evenodd">
        <g id="github" fill-rule="nonzero" stroke="#979797">
            <path d="M8,2.41108166 C4.9472021,2.41108166 2.47203351,4.88625025 2.47203351,7.93904815 C2.47203351,10.3818263 4.05579591,12.4534641 6.25260116,13.1842678 C6.5289347,13.2348832 6.62982009,13.0641533 6.62982009,12.9183964 C6.62982009,12.7868048 6.62475638,12.3508945 6.62205718,11.8893308 C6.62982009,11.3989233 6.6402714,11.3989233 6.6402714,11.1214078 C6.69051975,10.7651131 6.83357748,10.5208352 6.99116771,10.3831759 C5.76404552,10.2434976 4.47315738,9.76910737 4.47315738,7.6509029 C4.47315738,7.04695096 4.68875887,6.55435733 5.04167418,6.16735648 C4.98532563,6.02699796 4.79503187,5.46454896 5.09632763,4.70371939 C5.09632763,4.70371939 5.55992104,4.55526326 6.61664798,5.27055189 C7.05728737,5.14740348 7.52999329,5.08667143 7.9999892,5.08464163 C8.46965042,5.08667143 8.94268024,5.14807288 9.38401063,5.27122129 C10.4387294,4.55526326 10.9029922,4.70438879 10.9029922,4.70438879 C11.2053028,5.46589856 11.0150091,6.02766736 10.9583258,6.16735648 C11.3125907,6.55435733 11.5265079,7.04696176 11.5265079,7.6509029 C11.5265079,9.77450577 10.23359,10.2421372 9.00208428,10.3791271 C9.20115586,10.5505265 9.37727342,10.8865772 9.37727342,11.4021248 C9.37727342,12.1410369 9.36984521,12.7368804 9.36984521,12.9190766 C9.36984521,13.0661831 9.4703851,13.2382518 9.75043275,13.1842678 C11.9455645,12.4521145 13.5279665,10.3804767 13.5279665,7.93904815 C13.5279665,4.88625025 11.0527979,2.41108166 8,2.41108166 Z" id="Shape"></path>
        </g>
    </g>
</svg>