<?xml version="1.0" encoding="UTF-8"?>
<svg width="16px" height="16px" viewBox="0 0 16 16" version="1.1" xmlns="http://www.w3.org/2000/svg" xmlns:xlink="http://www.w3.org/1999/xlink">
    <!-- Generator: Sketch 48.2 (47327) - http://www.bohemiancoding.com/sketch -->
    <title>github</title>
    <desc>Created with Sketch.</desc>
    <defs></defs>
    <g id="Page-1" stroke="none" stroke-width="1" fill="none" fill-rule="evenodd">
        <g id="github" fill-rule="nonzero" stroke="#CCCCCC">
            <path d="M8,2 C4.47681342,2 1.62025985,4.85655357 1.62025985,8.37974015 C1.62025985,11.1989124 3.4480554,13.5897574 5.98335417,14.4331666 C6.30226642,14.4915811 6.41869667,14.2945443 6.41869667,14.1263285 C6.41869667,13.9744607 6.41285273,13.4713833 6.40973762,12.9387 C6.41869667,12.3727282 6.43075837,12.3727282 6.43075837,12.0524519 C6.48874921,11.6412577 6.65384991,11.3593405 6.83572234,11.20047 C5.41951971,11.0392694 3.92972579,10.491783 3.92972579,8.04719619 C3.92972579,7.35018466 4.17854811,6.78169 4.58584219,6.33505835 C4.5208112,6.17307276 4.30119612,5.52395912 4.64891688,4.64589754 C4.64891688,4.64589754 5.18394283,4.47456663 6.40349495,5.30007012 C6.91203002,5.15794645 7.45757256,5.08785653 7.99998754,5.08551397 C8.54201624,5.08785653 9.0879326,5.158719 9.59726514,5.30084266 C10.8144996,4.47456663 11.3502981,4.64667009 11.3502981,4.64667009 C11.6991901,5.52551668 11.4795751,6.17384531 11.4141578,6.33505835 C11.8230094,6.78169 12.0698879,7.35019712 12.0698879,8.04719619 C12.0698879,10.4980132 10.5777515,11.0376994 9.15648989,11.1957973 C9.3862353,11.3936066 9.58948983,11.7814375 9.58948983,12.3764231 C9.58948983,13.22919 9.58091705,13.9168437 9.58091705,14.1271135 C9.58091705,14.2968868 9.69694858,14.4954687 10.0201472,14.4331666 C12.5535146,13.5881999 14.3797401,11.1973549 14.3797401,8.37974015 C14.3797401,4.85655357 11.5231866,2 8,2 Z" id="Shape"></path>
        </g>
    </g>
</svg>