<?xml version="1.0" encoding="UTF-8"?>
<svg width="16px" height="16px" viewBox="0 0 16 16" version="1.1" xmlns="http://www.w3.org/2000/svg" xmlns:xlink="http://www.w3.org/1999/xlink">
    <!-- Generator: Sketch 48.2 (47327) - http://www.bohemiancoding.com/sketch -->
    <title>twitter</title>
    <desc>Created with Sketch.</desc>
    <defs></defs>
    <g id="Page-1" stroke="none" stroke-width="1" fill="none" fill-rule="evenodd">
        <g id="twitter" fill-rule="nonzero" stroke="#CCCCCC">
            <path d="M15.3595297,3.94971725 C14.8790695,4.16284879 14.3626304,4.30683011 13.8207252,4.37160538 C14.3737963,4.0400239 14.7986881,3.51496549 14.9987601,2.88928339 C14.4810151,3.19637824 13.9076364,3.41930443 13.2972992,3.5394521 C12.8086116,3.01870333 12.1122774,2.69339043 11.3416346,2.69339043 C9.86198976,2.69339043 8.66228907,3.89297359 8.66228907,5.37261838 C8.66228907,5.58261563 8.68597905,5.78712788 8.73166782,5.98321673 C6.50491342,5.87149244 4.53062585,4.80479 3.20919074,3.1837758 C2.97853332,3.57947957 2.84640809,4.03976271 2.84640809,4.53080106 C2.84640809,5.46037843 3.31940665,6.28045164 4.03837298,6.76091176 C3.59916791,6.74700336 3.18601008,6.62646389 2.82480371,6.42580421 C2.82454905,6.43697011 2.82454905,6.44813601 2.82454905,6.4594978 C2.82454905,7.75763471 3.74812557,8.84047873 4.97378861,9.08669658 C4.74899491,9.14791313 4.51229093,9.18069255 4.26793405,9.18069255 C4.09528053,9.18069255 3.92743945,9.16385882 3.76381659,9.13260736 C4.10476828,10.1970113 5.09425625,10.9717092 6.26670171,10.9932378 C5.34973331,11.7119168 4.1944742,12.1402564 2.93915165,12.1402564 C2.72287865,12.1402564 2.5095904,12.1275299 2.29999995,12.1027886 C3.48571389,12.8629682 4.89407977,13.3066096 6.4071439,13.3066096 C11.3353666,13.3066096 14.0303966,9.22395225 14.0303966,5.68330461 C14.0303966,5.56714009 14.0277194,5.45162854 14.0225609,5.33670467 C14.5461168,4.95889246 15.0003273,4.48705163 15.3595297,3.94971725" id="Shape"></path>
        </g>
    </g>
</svg>